PathFileType	4	(X/Y/Z)	G:\Shared drives\HPL_Drive\Pi-Spi Study\20230118_AMCsubject1\Trimmed_left_horiz_abd01_rotated.trc
DataRate	CameraRate	NumFrames	NumMarkers	Units	OrigDataRate	OrigDataStartFrame	OrigNumFrames
200.00	200.00	       4	35	mm	200.00	76	       200
Frame#	Time	C7			Sternum			r_AMC1			r_AMC2			r_AMC3			l_AMC1			l_AMC2			l_AMC3			PX			T8			r_humerous			r_elbow_medial			r_elbow_lateral			r_forearm			r_wrist_radius			r_wrist_ulna			r_MCP_1			r_MCP_3			l_humerous			l_elbow_medial			l_elbow_lateral			l_forearm			l_wrist_radius			l_wrist_ulna			l_MCP_1			l_MCP_3			r_ASIS			r_PSIS			l_ASIS			l_PSIS			r_IC			l_IC			TS			AI			AA			
		X1	Y1	Z1	X2	Y2	Z2	X3	Y3	Z3	X4	Y4	Z4	X5	Y5	Z5	X6	Y6	Z6	X7	Y7	Z7	X8	Y8	Z8	X9	Y9	Z9	X10	Y10	Z10	X11	Y11	Z11	X12	Y12	Z12	X13	Y13	Z13	X14	Y14	Z14	X15	Y15	Z15	X16	Y16	Z16	X17	Y17	Z17	X18	Y18	Z18	X19	Y19	Z19	X20	Y20	Z20	X21	Y21	Z21	X22	Y22	Z22	X23	Y23	Z23	X24	Y24	Z24	X25	Y25	Z25	X26	Y26	Z26	X27	Y27	Z27	X28	Y28	Z28	X29	Y29	Z29	X30	Y30	Z30	X31	Y31	Z31	X32	Y32	Z32	X33	Y33	Z33	X34	Y34	Z34	X35	Y35	Z35	

76	0.375	234.1287	1374.3165	-200.6797	370.1893	1322.6877	-220.2307	240.3021	1327.0718	-62.0836	275.1559	1332.2124	-26.7676	294.4577	1365.5422	-50.3346	193.5772	1355.1353	-315.1723	214.7944	1374.7811	-357.4377	245.5103	1401.5463	-321.8974	428.3031	1126.158	-238.2866	194.0431	1198.291	-205.0753	346.4402	1149.1888	-7.1228	272.5268	1007.5145	-23.807	293.3838	1020.6949	38.9139	350.9202	866.3254	61.3308	399.3457	803.364	40.0692	353.6952	797.455	63.6501	423.5535	721.7753	52.9928	376.6143	717.9301	72.4303	264.4386	1347.9967	-509.9659	220.3997	1259.1251	-618.235	188.5161	1300.1809	-624.9543	161.1245	1313.6379	-780.5809	165.944	1326.0796	-857.2155	160.0892	1283.308	-856.5884	147.6506	1327.2997	-933.5717	149.7585	1283.6223	-934.9534	388.7064	904.3009	-100.1991	198.5284	932.7038	-170.9915	374.9882	889.9811	-356.4347	193.3327	927.4035	-272.7145	312.9251	967.8577	-64.3468	289.5768	942.4072	-387.873	138.3029	1298.2999	-248.0523	150.2792	1201.4128	-274.674	142.0697	1340.0478	-380.3723
77	0.38	234.1254	1374.3303	-200.6381	370.1714	1322.6835	-220.196	240.2932	1327.066	-62.0613	275.1396	1332.2346	-26.747	294.4136	1365.5708	-50.2893	193.5745	1355.106	-315.143	214.7772	1374.735	-357.4384	245.5061	1401.5189	-321.898	428.3653	1126.1555	-238.2709	194.0684	1198.274	-205.0635	346.4543	1149.2107	-7.0972	272.5676	1007.5239	-23.7813	293.36	1020.7404	39.0114	350.871	866.3937	61.3881	399.3524	803.4032	40.1284	353.6691	797.4982	63.7482	423.6172	721.7452	53.0243	376.6375	717.9913	72.5146	264.4374	1347.9783	-509.9554	220.4446	1259.0602	-618.1998	188.5254	1300.1361	-624.9735	161.0978	1313.5275	-780.5322	165.9363	1325.9592	-857.2147	160.0807	1283.2249	-856.5467	147.6307	1327.1488	-933.5366	149.7364	1283.483	-934.9359	388.7194	904.2817	-100.2097	198.564	932.708	-170.9589	374.9777	889.981	-356.4233	193.3299	927.395	-272.6783	312.9315	967.8444	-64.321	289.6371	942.3123	-387.8771	138.2945	1298.2819	-248.053	150.3005	1201.3845	-274.6838	142.0597	1340.0454	-380.3663
78	0.385	234.0992	1374.3363	-200.6548	370.1783	1322.7026	-220.2098	240.2808	1327.0698	-62.0415	275.1333	1332.2531	-26.7273	294.4846	1365.5424	-50.3376	193.5503	1355.0828	-315.1336	214.7484	1374.727	-357.4029	245.4945	1401.5004	-321.8865	428.3556	1126.1804	-238.2777	194.0805	1198.2578	-204.9998	346.415	1149.2267	-7.0281	272.5939	1007.5324	-23.7256	293.3753	1020.7681	39.0411	350.8923	866.3873	61.4495	399.3536	803.501	40.218	353.7088	797.494	63.8158	423.602	721.8146	53.1258	376.7182	717.9714	72.554	264.4359	1347.9664	-509.9147	220.4455	1259.0209	-618.1784	188.5162	1300.0927	-624.941	161.0912	1313.453	-780.5712	165.8933	1325.8433	-857.2052	160.0824	1283.1337	-856.5394	147.6033	1327.005	-933.5458	149.7203	1283.3626	-934.9169	388.7294	904.271	-100.2245	198.5643	932.7012	-170.9066	374.9478	889.9772	-356.4413	193.3321	927.4025	-272.6628	312.9448	967.886	-64.327	289.5526	942.4108	-387.8526	138.2981	1298.2714	-248.0498	150.3206	1201.4166	-274.6716	142.0198	1340.0001	-380.3397
79	0.39	234.1012	1374.3181	-200.6276	370.1873	1322.6988	-220.1831	240.2926	1327.0668	-62.0397	275.1237	1332.2559	-26.7381	294.4588	1365.5283	-50.3094	193.5374	1355.0513	-315.1184	214.7396	1374.7147	-357.3953	245.4914	1401.4435	-321.9019	428.387	1126.1659	-238.241	194.0853	1198.2653	-204.9848	346.4398	1149.2206	-7.0181	272.6053	1007.5596	-23.6985	293.3893	1020.7485	39.0605	350.9333	866.4262	61.4751	399.4581	803.3911	40.2375	353.7048	797.5517	63.8946	423.6401	721.8277	53.2273	376.6616	717.9877	72.5917	264.3634	1347.9804	-509.8773	220.4524	1258.9702	-618.1674	188.5186	1300.063	-624.935	161.059	1313.3468	-780.5277	165.8816	1325.7487	-857.1844	160.0582	1282.9862	-856.4877	147.606	1326.8584	-933.5222	149.6884	1283.2694	-934.8737	388.7916	904.2778	-100.2451	198.5992	932.7132	-170.8942	374.9391	889.9799	-356.4461	193.314	927.3989	-272.637	313.0622	967.8574	-64.3092	289.5236	942.3684	-387.8569	138.2976	1298.2376	-248.0476	150.3129	1201.3619	-274.6587	142.033	1340.0076	-380.323
